<?xml version="1.0" encoding="UTF-8"?>
<svg xmlns="http://www.w3.org/2000/svg" xmlns:xlink="http://www.w3.org/1999/xlink" width="3001" height="3001" viewBox="0 0 3001 3001">
<path fill-rule="nonzero" fill="rgb(99.609375%, 99.609375%, 99.609375%)" fill-opacity="1" d="M 0 0 L 3000.089844 0 C 3000.089844 1000.03125 3000.089844 2000.058594 3000.089844 3000.09375 C 2000.058594 3000.09375 1000.03125 3000.09375 0 3000.09375 C 0 2000.058594 0 1000.03125 0 0 "/>
<path fill-rule="nonzero" fill="rgb(19.213867%, 15.281677%, 11.767578%)" fill-opacity="1" d="M 1395 454.820312 L 1390.878906 456.011719 C 1381.28125 458.828125 1374.53125 461.078125 1370.621094 462.78125 C 1364.109375 465.628906 1360.261719 467.480469 1359.070312 468.339844 C 1352.949219 472.140625 1349.359375 474.621094 1348.300781 475.78125 C 1343.710938 479.679688 1339.449219 484.109375 1335.539062 489.058594 C 1322.101562 507 1313.269531 524.109375 1309.058594 540.390625 L 1307.058594 549.03125 C 1309.21875 546.191406 1311.050781 544.691406 1312.53125 544.5 C 1314.109375 544.140625 1316.621094 544.761719 1320.070312 546.371094 C 1323.390625 531.761719 1326.839844 520.769531 1330.429688 513.410156 C 1334.078125 505.328125 1340.089844 495.949219 1348.460938 485.269531 C 1354.160156 477.921875 1360.75 471.730469 1368.230469 466.691406 C 1375 462.441406 1383.921875 458.480469 1395 454.820312 "/>
<path fill-rule="nonzero" fill="rgb(19.213867%, 15.281677%, 11.767578%)" fill-opacity="1" d="M 1341.511719 549.070312 L 1341.910156 556.621094 C 1342.851562 571.449219 1343.351562 592.351562 1343.390625 619.320312 C 1344.121094 628.371094 1345.140625 634.53125 1346.460938 637.78125 C 1351.730469 652.609375 1364.121094 664.488281 1383.628906 673.441406 C 1408.5 685.828125 1438.039062 688.519531 1472.269531 681.519531 C 1487.441406 677.53125 1497.679688 672.75 1502.988281 667.179688 C 1509.390625 661.960938 1512.421875 653.640625 1512.089844 642.230469 C 1511.238281 633.910156 1509.421875 628.140625 1506.628906 624.921875 C 1506.328125 624.390625 1505.359375 623.589844 1503.710938 622.511719 L 1496.621094 619.449219 C 1491.179688 613.929688 1485.660156 609.980469 1480.058594 607.609375 C 1474.578125 605.429688 1467.550781 603.71875 1458.960938 602.488281 C 1450.820312 601.199219 1436 599.71875 1414.519531 598.050781 C 1410.019531 597.601562 1405.730469 596.960938 1401.660156 596.109375 C 1392.558594 593.890625 1385.480469 591.199219 1380.421875 588.03125 C 1361.71875 577.558594 1348.75 564.570312 1341.511719 549.070312 "/>
<path fill-rule="nonzero" fill="rgb(19.213867%, 15.281677%, 11.767578%)" fill-opacity="1" d="M 1441.320312 499.300781 L 1441.261719 498.570312 C 1441.089844 496.359375 1440.628906 494.761719 1439.878906 493.75 C 1439.070312 492.769531 1438.5 492.210938 1438.160156 492.070312 C 1437.628906 491.710938 1437.089844 491.429688 1436.570312 491.210938 C 1432.128906 489.519531 1426.199219 488.910156 1418.78125 489.378906 C 1415.390625 489.609375 1412.121094 490.101562 1408.96875 490.839844 C 1407.929688 491.078125 1406.921875 491.359375 1405.929688 491.660156 L 1404.480469 492.128906 C 1403.53125 492.460938 1402.609375 492.820312 1401.730469 493.199219 C 1398.128906 494.671875 1393.878906 497.621094 1388.960938 502.070312 C 1396.398438 499.691406 1401.71875 498.191406 1404.941406 497.558594 C 1408.171875 496.808594 1412.011719 496.28125 1416.441406 495.988281 C 1420.78125 495.769531 1424.640625 495.878906 1428.019531 496.320312 C 1432.03125 496.839844 1436.460938 497.839844 1441.320312 499.300781 "/>
<path fill-rule="nonzero" fill="rgb(19.213867%, 15.281677%, 11.767578%)" fill-opacity="1" d="M 1505.421875 533.191406 L 1504.769531 531.621094 C 1503.261719 527.980469 1502.109375 525.449219 1501.320312 524.050781 C 1500 521.710938 1499.160156 520.351562 1498.808594 519.96875 C 1497.210938 517.929688 1496.191406 516.769531 1495.75 516.488281 C 1494.210938 515.121094 1492.539062 513.949219 1490.71875 512.988281 C 1487.941406 511.570312 1485.289062 510.480469 1482.761719 509.71875 C 1477.941406 508.171875 1475.210938 507.5 1474.578125 507.710938 C 1473.71875 507.800781 1473.320312 508.371094 1473.359375 509.429688 C 1473.378906 510.5 1473.800781 512.339844 1474.621094 514.941406 C 1481.289062 516.511719 1486.351562 518.371094 1489.78125 520.519531 C 1493.191406 522.421875 1498.398438 526.640625 1505.421875 533.191406 "/>
<path fill-rule="nonzero" fill="rgb(95.3125%, 80.076599%, 7.446289%)" fill-opacity="1" d="M 1162.738281 1269 L 1162.839844 1266.75 C 1162.160156 1254.910156 1167.660156 1247.371094 1179.308594 1244.121094 C 1195.398438 1240.441406 1215.179688 1240.828125 1238.660156 1245.269531 L 1244.550781 1246.398438 C 1280.101562 1255.03125 1325.941406 1263.828125 1382.058594 1272.789062 L 1414.820312 1280.511719 C 1422.890625 1282.609375 1434.769531 1286.660156 1450.460938 1292.640625 L 1532.570312 1328.769531 C 1542.929688 1333.019531 1550.21875 1335.320312 1554.449219 1335.699219 C 1560.019531 1323.589844 1563.238281 1311.859375 1564.128906 1300.5 C 1565.179688 1291.660156 1565.378906 1269.929688 1564.738281 1235.328125 L 1566.050781 1222.738281 C 1566.660156 1219.929688 1567.589844 1217.238281 1568.820312 1214.679688 C 1577.269531 1200.640625 1581.300781 1193.019531 1580.910156 1191.820312 L 1582.570312 1160.371094 L 1584.808594 1147.621094 L 1611.828125 1067.660156 C 1616.570312 1050.769531 1619.011719 1038.128906 1619.128906 1029.769531 C 1619.429688 1023.871094 1619.039062 1018.308594 1617.949219 1013.101562 L 1608.441406 986.589844 C 1607.25 982.511719 1606.589844 977.800781 1606.460938 972.46875 C 1604.511719 968.609375 1609.699219 942.230469 1622.019531 893.300781 C 1623.308594 884.25 1623.320312 873.921875 1622.03125 862.300781 C 1617.339844 828.488281 1606.339844 793.429688 1589.050781 757.128906 C 1587.679688 752.511719 1587.609375 748.390625 1588.820312 744.769531 C 1551.308594 746.269531 1521.339844 735.679688 1498.921875 712.980469 C 1498.269531 712.960938 1497.570312 713.609375 1496.828125 714.929688 C 1490.058594 730.058594 1485.679688 738.191406 1483.671875 739.328125 C 1480.730469 742.820312 1476.46875 744.648438 1470.898438 744.800781 C 1470.199219 745.769531 1457.929688 742.878906 1434.070312 736.128906 C 1398.648438 731.960938 1358.5 724.769531 1313.601562 714.53125 C 1293.800781 713.699219 1278.398438 717.371094 1267.410156 725.519531 C 1261.769531 722.101562 1256.050781 717.039062 1250.230469 710.339844 C 1247.078125 708.980469 1243.589844 709.261719 1239.75 711.179688 C 1235.078125 714 1231.648438 718.210938 1229.441406 723.808594 C 1219.519531 760.039062 1213.46875 779.359375 1211.289062 781.769531 C 1211.261719 784.238281 1200.210938 802.558594 1178.160156 836.699219 L 1168.011719 867.738281 L 1161.789062 874.53125 C 1139.339844 890.058594 1128.398438 898.410156 1128.960938 899.589844 C 1124.960938 903.570312 1122.160156 909.710938 1120.558594 918.03125 C 1120.050781 921.78125 1119.929688 925.679688 1120.210938 929.710938 L 1124.140625 969.378906 C 1120.929688 1016.828125 1120.078125 1048.191406 1121.601562 1063.460938 C 1120.53125 1064.929688 1125.960938 1118.75 1137.890625 1224.941406 C 1140.628906 1254.308594 1148.910156 1268.988281 1162.738281 1269 "/>
<path fill-rule="nonzero" fill="rgb(95.3125%, 80.076599%, 7.446289%)" fill-opacity="1" d="M 1200.941406 1241.570312 C 1173.691406 1241.570312 1161 1249.960938 1162.839844 1266.75 L 1162.75 1268.789062 C 1163.460938 1277.558594 1160.589844 1289.851562 1154.109375 1305.671875 C 1150.199219 1303.261719 1146.480469 1302.058594 1142.949219 1302.058594 C 1140.660156 1302.058594 1138.441406 1302.558594 1136.300781 1303.578125 C 1126.269531 1308.601562 1119.71875 1315.058594 1116.660156 1322.941406 C 1115.730469 1325.890625 1115.558594 1328.769531 1116.171875 1331.589844 L 1123.839844 1356.25 C 1124.429688 1360.199219 1124.421875 1364.851562 1123.828125 1370.179688 C 1123.460938 1374.328125 1122.238281 1380.550781 1120.179688 1388.828125 L 1103.921875 1449.941406 C 1101.351562 1462.910156 1100.390625 1473.96875 1101.039062 1483.121094 C 1100.671875 1497.941406 1109.101562 1524.058594 1126.308594 1561.488281 C 1124.5 1564.871094 1124.039062 1567.101562 1124.910156 1568.171875 L 1141.640625 1581.769531 L 1171.21875 1623.269531 C 1173.679688 1624.859375 1183.640625 1646.800781 1201.128906 1689.089844 C 1206.960938 1700.390625 1214.328125 1711.671875 1223.230469 1722.929688 C 1195.289062 1751.929688 1180.078125 1773.128906 1177.609375 1786.550781 C 1176.421875 1790.441406 1175.960938 1792.609375 1176.230469 1793.058594 C 1177.359375 1794.230469 1178.191406 1795.601562 1178.71875 1797.171875 C 1183.089844 1815.429688 1186.558594 1826.871094 1189.109375 1831.480469 C 1194.691406 1843.578125 1202.578125 1851.019531 1212.769531 1853.789062 C 1215.808594 1821.75 1219.820312 1800.371094 1224.800781 1789.671875 L 1276.640625 1796.609375 C 1285.871094 1785.609375 1291.320312 1777.730469 1293 1772.960938 C 1295.191406 1768.320312 1295.558594 1761.710938 1294.121094 1753.121094 C 1280.671875 1739.21875 1260.449219 1720.78125 1233.449219 1697.808594 C 1231.460938 1685.648438 1230.859375 1676.328125 1231.640625 1669.839844 C 1232.828125 1658.628906 1236.511719 1647.730469 1242.679688 1637.148438 L 1274.589844 1584.589844 C 1299.730469 1533.300781 1315.398438 1504.449219 1321.609375 1498.039062 L 1418.460938 1534.210938 C 1431.480469 1544.089844 1441.390625 1559.738281 1448.191406 1581.160156 C 1477.710938 1674.609375 1490.421875 1731.160156 1486.300781 1750.78125 C 1477.378906 1778.058594 1451.75 1816.398438 1409.398438 1865.808594 C 1445.328125 1884.710938 1466.308594 1900.109375 1472.339844 1912.03125 L 1481.421875 1877.578125 C 1496.210938 1835.96875 1504.109375 1812.648438 1505.128906 1807.621094 C 1509.230469 1793.589844 1512.878906 1774.128906 1516.050781 1749.238281 C 1520.460938 1741.050781 1523.421875 1733.878906 1524.941406 1727.75 C 1527.75 1717.808594 1526.808594 1701.671875 1522.128906 1679.351562 C 1534.390625 1653.738281 1541.691406 1635.871094 1544.039062 1625.75 C 1546.480469 1615.441406 1546.398438 1605.488281 1543.769531 1595.878906 C 1558.558594 1536.140625 1565.410156 1506.121094 1564.339844 1505.820312 C 1570.679688 1480.570312 1564.921875 1443.808594 1547.078125 1395.519531 C 1549.800781 1383.261719 1553.421875 1369.339844 1557.960938 1353.738281 C 1558.898438 1349.730469 1559.011719 1346.351562 1558.300781 1343.601562 C 1557.789062 1340.921875 1555.558594 1338.140625 1551.609375 1335.261719 C 1547.261719 1334.351562 1540.910156 1332.191406 1532.570312 1328.769531 L 1450.460938 1292.640625 C 1434.769531 1286.660156 1422.890625 1282.609375 1414.820312 1280.511719 L 1382.058594 1272.789062 C 1325.941406 1263.828125 1280.101562 1255.03125 1244.550781 1246.398438 L 1238.660156 1245.269531 C 1223.949219 1242.808594 1211.378906 1241.570312 1200.941406 1241.570312 Z M 1200.941406 1241.570312 "/>
<path fill-rule="nonzero" fill="rgb(32.542419%, 36.473083%, 69.726562%)" fill-opacity="1" d="M 1228.871094 1287.019531 L 1227.640625 1290.011719 C 1223.039062 1301.03125 1219.960938 1309.390625 1218.421875 1315.070312 C 1217.058594 1319.371094 1216.460938 1324.140625 1216.621094 1329.378906 C 1216.769531 1332.230469 1217.429688 1335.78125 1218.621094 1340.019531 C 1219.359375 1339.789062 1220.25 1341.390625 1221.289062 1344.851562 L 1228.699219 1374.960938 C 1230.039062 1379.929688 1231.460938 1384.101562 1232.949219 1387.5 C 1234.238281 1390.570312 1235.941406 1392.628906 1238.039062 1393.679688 C 1238.308594 1394.269531 1241.121094 1394.390625 1246.460938 1394.019531 C 1247.410156 1394.128906 1248.339844 1394.511719 1249.230469 1395.140625 C 1250.410156 1395.75 1252.140625 1397.890625 1254.421875 1401.539062 C 1256.519531 1405.050781 1258.730469 1410.238281 1261.058594 1417.128906 C 1263.238281 1416.5 1265.691406 1419.179688 1268.410156 1425.148438 C 1269.691406 1428.089844 1271.101562 1431.789062 1272.628906 1436.230469 L 1283.691406 1469.679688 C 1285.320312 1473.730469 1286.511719 1476.019531 1287.25 1476.578125 C 1289.21875 1480.058594 1296.339844 1480.449219 1308.621094 1477.761719 C 1303.210938 1477.230469 1298.941406 1474.261719 1295.800781 1468.828125 C 1294.921875 1467.429688 1293.621094 1464.289062 1291.890625 1459.378906 C 1285.691406 1438.25 1282.179688 1427.339844 1281.359375 1426.660156 C 1279.160156 1421.398438 1275.691406 1417.171875 1270.949219 1413.980469 C 1268.609375 1405.351562 1266.480469 1399.929688 1264.570312 1397.71875 C 1261.808594 1393.320312 1255.5 1391.140625 1245.628906 1391.191406 C 1239.25 1370.289062 1234.960938 1357.230469 1232.78125 1352.039062 C 1230.410156 1345.898438 1227.871094 1341.949219 1225.148438 1340.179688 C 1225.730469 1330.5 1226.820312 1322.828125 1228.429688 1317.171875 C 1229.800781 1311.648438 1233.179688 1302.550781 1238.558594 1289.859375 L 1228.871094 1287.019531 "/>
<path fill-rule="nonzero" fill="rgb(32.542419%, 36.473083%, 69.726562%)" fill-opacity="1" d="M 1211.320312 1769.980469 C 1202.5 1770 1193.53125 1770.121094 1184.410156 1770.351562 C 1182.050781 1774.371094 1180.269531 1778.019531 1179.070312 1781.320312 C 1186.148438 1780.640625 1193.730469 1780.210938 1201.820312 1780.03125 C 1202.191406 1780.03125 1202.539062 1780.03125 1202.890625 1780.03125 C 1209.679688 1780.03125 1213.929688 1780.101562 1215.648438 1780.25 C 1218.929688 1780.398438 1222.378906 1780.628906 1226 1780.949219 C 1237.160156 1781.78125 1256.050781 1784.53125 1282.648438 1789.210938 C 1284.628906 1786.671875 1286.339844 1784.351562 1287.789062 1782.25 C 1287.128906 1782.011719 1286.460938 1781.761719 1285.789062 1781.519531 C 1269.851562 1775.890625 1255.160156 1772.5 1241.710938 1771.328125 C 1237.929688 1770.949219 1234.019531 1770.660156 1230.011719 1770.460938 C 1228.109375 1770.269531 1221.878906 1770.109375 1211.320312 1769.980469 Z M 1211.320312 1769.980469 "/>
<path fill-rule="nonzero" fill="rgb(32.542419%, 36.473083%, 69.726562%)" fill-opacity="1" d="M 1425.089844 1847.070312 C 1422.078125 1850.75 1418.96875 1854.5 1415.761719 1858.320312 C 1433.949219 1866.238281 1446.960938 1873.691406 1454.808594 1880.671875 C 1461.671875 1886 1468.359375 1893.230469 1474.878906 1902.378906 L 1478.949219 1886.941406 C 1475.058594 1882.460938 1470.121094 1877.878906 1464.140625 1873.199219 C 1454.539062 1865.109375 1441.53125 1856.390625 1425.109375 1847.070312 Z M 1425.089844 1847.070312 "/>
<path fill-rule="nonzero" fill="rgb(32.542419%, 36.473083%, 69.726562%)" fill-opacity="1" d="M 622.632812 504.429688 L 624.371094 505.839844 C 630.539062 510.640625 637.160156 517.128906 644.234375 525.308594 C 679.917969 570.601562 701.550781 597.140625 709.132812 604.949219 C 718.5 615.75 731.695312 628.621094 748.722656 643.558594 C 760.058594 653.171875 771.140625 661.480469 781.964844 668.46875 C 819.703125 690.800781 840.195312 703.371094 843.441406 706.191406 C 849.800781 710.058594 877.621094 731.410156 926.894531 770.230469 C 936.296875 777.160156 947.691406 784.210938 961.085938 791.390625 C 957.875 769.410156 960.65625 751.019531 969.425781 736.210938 C 972.902344 730.839844 977.070312 725.628906 981.925781 720.578125 C 1009.960938 694.96875 1028.878906 675.261719 1038.691406 661.449219 C 989.753906 636.519531 956.308594 620.78125 938.355469 614.199219 C 931.152344 609.988281 903.15625 602 854.367188 590.238281 C 844.617188 586.78125 838.992188 584.449219 837.488281 583.269531 C 835.570312 582.578125 830.722656 579.25 822.945312 573.261719 C 821.226562 572.25 811.171875 562.738281 792.785156 544.75 C 789.863281 542.128906 786.84375 539.671875 783.71875 537.371094 C 782.269531 536.019531 777.332031 532.96875 768.90625 528.210938 C 737.511719 513.851562 720.945312 505.480469 719.21875 503.121094 C 712.441406 498.988281 698.738281 486.441406 678.109375 465.449219 C 673.152344 461.140625 665.898438 456.800781 656.351562 452.449219 C 635.527344 469.148438 624.285156 486.480469 622.632812 504.429688 "/>
<path fill-rule="nonzero" fill="rgb(83.201599%, 29.026794%, 27.830505%)" fill-opacity="1" d="M 798.074219 227.25 L 802.550781 245.050781 C 808.375 281.929688 801.230469 315.261719 781.121094 345.03125 C 760.816406 374.839844 731.648438 393.710938 693.613281 401.660156 C 656.742188 407.46875 623.425781 400.320312 593.664062 380.191406 C 584.101562 373.671875 575.476562 365.980469 567.785156 357.121094 L 557.152344 343.070312 C 550.597656 333.148438 545.382812 322.269531 541.507812 310.441406 C 530.636719 273.78125 533.355469 239.46875 549.660156 207.511719 C 565.964844 175.539062 592.136719 153.210938 628.183594 140.511719 C 664.820312 129.640625 699.121094 132.371094 731.078125 148.691406 C 763.039062 165.011719 785.371094 191.191406 798.074219 227.25 "/>
<path fill-rule="nonzero" fill="rgb(18.821716%, 15.281677%, 11.376953%)" fill-opacity="1" d="M 1398.910156 523.269531 L 1403.398438 522.5 C 1406.761719 520.089844 1409.910156 518.410156 1412.828125 517.46875 C 1413.488281 517.269531 1414.171875 517.089844 1414.871094 516.949219 L 1415.929688 516.769531 C 1416.648438 516.660156 1417.378906 516.589844 1418.121094 516.570312 C 1419.601562 516.5 1421.058594 516.628906 1422.480469 516.949219 C 1423.910156 517.269531 1425.210938 517.828125 1426.410156 518.628906 C 1426.75 518.769531 1427.550781 519.488281 1428.808594 520.800781 C 1429.078125 521.050781 1429.730469 521.929688 1430.75 523.441406 L 1434.378906 529.789062 C 1434.859375 530.511719 1435.210938 530.890625 1435.441406 530.929688 C 1435.859375 530.710938 1435.5 529.101562 1434.351562 526.089844 C 1433.160156 523.308594 1432.101562 521.308594 1431.140625 520.070312 C 1430.03125 518.449219 1428.699219 517.121094 1427.160156 516.070312 L 1425.96875 515.390625 C 1425.148438 514.988281 1424.289062 514.691406 1423.398438 514.480469 C 1421.589844 514.070312 1419.730469 513.960938 1417.820312 514.140625 C 1416.859375 514.230469 1415.929688 514.359375 1415 514.558594 C 1414.488281 514.609375 1413.160156 514.988281 1411 515.699219 C 1409.671875 516.109375 1407.800781 517.03125 1405.378906 518.460938 C 1403.691406 519.5 1401.53125 521.109375 1398.910156 523.269531 "/>
<path fill-rule="nonzero" fill="rgb(18.821716%, 15.281677%, 11.376953%)" fill-opacity="1" d="M 1507.429688 557.859375 L 1507.179688 556.910156 C 1505.820312 551.769531 1504.5 548.058594 1503.191406 545.769531 C 1501.390625 542.570312 1499.628906 540.339844 1497.898438 539.058594 C 1496.960938 538.300781 1495.960938 537.691406 1494.898438 537.230469 C 1494.109375 536.820312 1492.75 536.449219 1490.828125 536.128906 C 1489.308594 535.921875 1487.609375 535.941406 1485.730469 536.21875 C 1483.75 536.558594 1482.589844 536.949219 1482.25 537.410156 C 1482.300781 537.511719 1482.480469 537.558594 1482.769531 537.570312 C 1484.558594 537.558594 1485.890625 537.589844 1486.738281 537.640625 C 1488.21875 537.769531 1489.128906 537.890625 1489.441406 537.988281 C 1491.320312 538.390625 1493.011719 539.191406 1494.5 540.410156 C 1495.828125 541.398438 1497.21875 542.96875 1498.679688 545.121094 C 1499.550781 546.441406 1500.578125 548.578125 1501.78125 551.550781 C 1502.109375 552.210938 1502.511719 552.851562 1502.980469 553.460938 C 1503.648438 554.398438 1505.128906 555.871094 1507.429688 557.859375 "/>
<path fill-rule="nonzero" fill="rgb(32.542419%, 36.473083%, 69.726562%)" fill-opacity="1" d="M 1253.320312 713.769531 C 1249.910156 715.46875 1247.261719 718.328125 1245.378906 722.371094 C 1244.890625 722.851562 1243.378906 726.28125 1240.839844 732.660156 C 1231.679688 759.910156 1226.570312 774.578125 1225.550781 776.679688 L 1217.179688 796.449219 C 1209.460938 813.121094 1199.128906 831.589844 1186.191406 851.859375 C 1178.300781 864.328125 1170.890625 874.378906 1163.960938 882.019531 C 1163.628906 882.96875 1153.390625 892.390625 1133.238281 910.28125 L 1126.898438 916.820312 C 1123.691406 920.738281 1122.710938 923.660156 1123.960938 925.589844 C 1151.378906 901.988281 1165.691406 888.980469 1166.890625 886.570312 C 1168.761719 884.621094 1171.558594 881.03125 1175.308594 875.820312 L 1203.820312 833.699219 C 1210.949219 823.160156 1217.808594 810.308594 1224.398438 795.121094 C 1228.789062 785.238281 1236.359375 764.570312 1247.089844 733.109375 C 1248.371094 729.75 1249.519531 727.179688 1250.570312 725.378906 C 1251.5 723.03125 1253.96875 720.691406 1258 718.378906 C 1256.460938 716.960938 1254.898438 715.429688 1253.339844 713.769531 Z M 1253.320312 713.769531 "/>
<path fill-rule="nonzero" fill="rgb(32.542419%, 36.473083%, 69.726562%)" fill-opacity="1" d="M 1576.601562 744.820312 C 1577.78125 752.859375 1579.660156 760.898438 1582.230469 768.949219 C 1585 777.179688 1586.878906 782.410156 1587.859375 784.640625 C 1598.359375 809.820312 1605.320312 827.320312 1608.75 837.140625 C 1612.011719 846.269531 1614.429688 854.890625 1616.019531 862.988281 C 1618.128906 875.070312 1618.851562 885.589844 1618.191406 894.53125 C 1618.179688 896.25 1617.808594 900.308594 1617.101562 906.691406 C 1616.328125 912.199219 1615.660156 917.191406 1615.078125 921.640625 C 1617.070312 913.230469 1619.378906 903.78125 1622.019531 893.300781 C 1622.109375 892.648438 1622.199219 891.988281 1622.28125 891.328125 C 1622.160156 885.988281 1621.960938 881.449219 1621.660156 877.71875 C 1621.070312 869.179688 1619.710938 860.730469 1617.550781 852.390625 C 1616.039062 846.828125 1614.25 841.328125 1612.179688 835.898438 L 1596.269531 796.691406 C 1593.429688 789.199219 1591.019531 782.121094 1589.03125 775.46875 C 1586.269531 767.121094 1584.230469 756.941406 1582.898438 744.898438 C 1582.558594 744.910156 1582.230469 744.910156 1581.898438 744.910156 C 1580.128906 744.910156 1578.359375 744.878906 1576.621094 744.820312 Z M 1576.601562 744.820312 "/>
<path fill-rule="nonzero" fill="rgb(32.542419%, 36.473083%, 69.726562%)" fill-opacity="1" d="M 1312.699219 886.671875 L 1314.21875 927.070312 L 1334.089844 924.949219 C 1336.199219 919.398438 1338.441406 915.238281 1340.839844 912.46875 C 1342.699219 909.941406 1346.070312 908.199219 1350.941406 907.269531 C 1362.25 905.960938 1369.480469 909.769531 1372.628906 918.699219 C 1336.160156 970.03125 1317.679688 996.679688 1317.179688 998.640625 L 1317.199219 1029.609375 L 1401.660156 1027 L 1399.511719 998.308594 L 1374.898438 998.410156 L 1374.359375 1009.871094 L 1338.75 1007.378906 L 1361.019531 973.890625 L 1374.058594 955.179688 C 1380.488281 946.25 1387.878906 937.339844 1396.25 928.460938 C 1397.820312 926.710938 1398.578125 923.96875 1398.539062 920.230469 C 1398.449219 918.121094 1397.839844 915.050781 1396.691406 911.011719 L 1370.628906 888.78125 L 1345.761719 888.5 L 1336.109375 897.328125 L 1333.171875 887.589844 L 1312.699219 886.671875 "/>
<path fill-rule="nonzero" fill="rgb(32.542419%, 36.473083%, 69.726562%)" fill-opacity="1" d="M 1428.78125 889.550781 L 1431.800781 929.820312 L 1451.039062 929.648438 L 1463.191406 915.199219 L 1481.679688 915.480469 L 1491.359375 927.878906 L 1489.679688 945.511719 L 1479.730469 951.570312 L 1458.480469 951.53125 L 1458.519531 974.460938 L 1476.648438 975.949219 L 1485.230469 987.039062 L 1485.03125 1010.738281 L 1474.621094 1020.691406 L 1459.128906 1018.351562 L 1450.640625 1006.359375 L 1451.460938 994.390625 L 1427.109375 993.460938 L 1429.71875 1032.558594 L 1449.828125 1037.078125 L 1452.191406 1030.289062 L 1461.269531 1040.511719 L 1483.789062 1043.289062 L 1506.148438 1025.140625 L 1507.359375 987.851562 L 1498.019531 970.359375 L 1511.019531 957.871094 L 1513.691406 920.910156 L 1490.871094 892.980469 L 1465.378906 892.46875 L 1455.460938 901.570312 L 1454.058594 891.148438 L 1428.78125 889.550781 "/>
<path fill-rule="nonzero" fill="rgb(85.15625%, 61.521912%, 18.431091%)" fill-opacity="1" d="M 1347.628906 1027.898438 C 1341.691406 1027.898438 1335.730469 1028.308594 1329.738281 1029.121094 C 1362.160156 1038.441406 1388.910156 1053.210938 1409.988281 1073.410156 C 1417.398438 1079.808594 1429.261719 1092.140625 1445.570312 1110.398438 L 1532.25 1211.121094 C 1541.71875 1221.738281 1550.039062 1244.101562 1557.199219 1278.199219 L 1530.050781 1222.558594 L 1540.410156 1300.839844 C 1525.96875 1234.671875 1514.339844 1197.410156 1505.5 1189.039062 C 1501.691406 1183.460938 1497.179688 1178 1491.96875 1172.679688 C 1479.210938 1160.191406 1458.910156 1139.050781 1431.070312 1109.261719 C 1411.578125 1089.820312 1397.269531 1077.03125 1388.128906 1070.859375 C 1370.308594 1057.78125 1352.890625 1050.03125 1335.871094 1047.621094 C 1331.558594 1046.449219 1325.710938 1045.859375 1318.328125 1045.859375 C 1306.070312 1045.859375 1289.578125 1047.480469 1268.851562 1050.710938 C 1297.679688 1071.121094 1322.011719 1091.96875 1341.839844 1113.269531 C 1349 1121.148438 1356.199219 1129.589844 1363.441406 1138.570312 C 1391.511719 1174.128906 1409.5 1196.488281 1417.410156 1205.640625 C 1430.609375 1221.550781 1455.019531 1249.519531 1490.679688 1289.550781 C 1487.558594 1286.960938 1441.089844 1236.871094 1351.269531 1139.28125 C 1324.96875 1112.210938 1307.378906 1095.191406 1298.519531 1088.230469 C 1283.5 1074.941406 1269.699219 1066.941406 1257.128906 1064.21875 C 1255.539062 1064.011719 1253.980469 1063.910156 1252.429688 1063.910156 C 1244.308594 1063.910156 1236.699219 1066.820312 1229.609375 1072.660156 C 1246.128906 1092.839844 1257.019531 1109.320312 1262.25 1122.089844 C 1266.671875 1132.609375 1269.179688 1139.230469 1269.789062 1141.949219 C 1278.058594 1172.640625 1284.160156 1192.789062 1288.089844 1202.378906 C 1291.800781 1211.890625 1296.5 1220.011719 1302.199219 1226.730469 C 1311.039062 1236.359375 1321.539062 1243.640625 1333.691406 1248.570312 C 1377.449219 1264.371094 1408.53125 1276.230469 1426.929688 1284.140625 L 1439.25 1289.199219 L 1554.589844 1337.71875 C 1553.738281 1336.910156 1552.75 1336.089844 1551.621094 1335.269531 L 1551.640625 1335.269531 C 1552.691406 1335.480469 1553.628906 1335.621094 1554.449219 1335.699219 C 1560.019531 1323.589844 1563.238281 1311.859375 1564.128906 1300.5 C 1565.179688 1291.660156 1565.378906 1269.929688 1564.738281 1235.328125 L 1566.050781 1222.738281 C 1566.660156 1219.929688 1567.589844 1217.238281 1568.820312 1214.679688 C 1577.269531 1200.640625 1581.300781 1193.019531 1580.910156 1191.820312 L 1581.859375 1173.761719 C 1570.410156 1154.308594 1552.359375 1130.398438 1527.710938 1102.03125 C 1508.960938 1080.621094 1492.460938 1066.730469 1478.210938 1060.359375 C 1472.378906 1057.148438 1462.21875 1054.941406 1447.769531 1053.730469 L 1447.738281 1053.738281 C 1483.628906 1068.289062 1506.941406 1085.390625 1517.671875 1105.058594 C 1525.210938 1115.03125 1541.039062 1142.828125 1565.160156 1188.460938 C 1544.890625 1154.578125 1529.019531 1131.289062 1517.570312 1118.589844 C 1506.371094 1105.160156 1488.269531 1089.25 1463.261719 1070.871094 L 1463.230469 1070.871094 C 1490.429688 1102.148438 1508.390625 1124.589844 1517.109375 1138.191406 C 1526.710938 1152.160156 1536.21875 1171.070312 1545.621094 1194.910156 C 1482.878906 1083.570312 1416.878906 1027.898438 1347.628906 1027.898438 Z M 1347.628906 1027.898438 "/>
<path fill-rule="nonzero" fill="rgb(85.15625%, 61.521912%, 18.431091%)" fill-opacity="1" d="M 1500.890625 888.308594 C 1523.730469 934.75 1539.589844 970.621094 1548.460938 995.921875 C 1561.378906 1031.710938 1568.980469 1062.019531 1571.28125 1086.839844 C 1571.851562 1093.691406 1572 1102.089844 1571.71875 1112.03125 C 1561.660156 1084.738281 1553.46875 1067.199219 1547.140625 1059.421875 C 1541.050781 1050.601562 1530.628906 1043.230469 1515.871094 1037.308594 L 1515.851562 1037.308594 C 1530.628906 1053.179688 1540.421875 1065.808594 1545.230469 1075.199219 C 1550.511719 1084.328125 1555.828125 1099.480469 1561.210938 1120.628906 L 1517.71875 1078.828125 L 1517.699219 1078.839844 C 1543.328125 1110.058594 1560.191406 1131.628906 1568.28125 1143.550781 C 1573.339844 1150.871094 1578.011719 1158.269531 1582.289062 1165.761719 L 1582.570312 1160.371094 L 1584.808594 1147.621094 L 1611.828125 1067.660156 C 1613.890625 1060.320312 1615.519531 1053.789062 1616.699219 1048.058594 L 1616.679688 1048.070312 C 1616.28125 1048.121094 1615.878906 1048.171875 1615.480469 1048.230469 C 1602.109375 1011.488281 1588.769531 984.269531 1575.441406 966.550781 C 1563.308594 948.730469 1538.460938 922.640625 1500.910156 888.308594 Z M 1500.890625 888.308594 "/>
<path fill-rule="nonzero" fill="rgb(85.15625%, 61.521912%, 18.431091%)" fill-opacity="1" d="M 1564.871094 880.53125 C 1577.988281 895.589844 1586.058594 906.210938 1589.058594 912.390625 C 1592.691406 918.808594 1594.589844 927.089844 1594.75 937.21875 C 1590.058594 928.75 1583.691406 921.75 1575.640625 916.21875 C 1568.621094 910.929688 1552.410156 901.710938 1527 888.570312 L 1526.980469 888.570312 C 1551.308594 907.878906 1566.648438 922.011719 1572.988281 930.949219 C 1577.660156 936.851562 1581.339844 942.910156 1584.050781 949.121094 L 1596.359375 981.710938 C 1600.011719 989.199219 1602.5 993.621094 1603.800781 994.980469 C 1604.570312 996.519531 1608.160156 1000.609375 1614.550781 1007.269531 L 1616.5 1009.039062 L 1608.441406 986.589844 C 1607.25 982.511719 1606.589844 977.800781 1606.460938 972.46875 C 1604.839844 969.261719 1608.160156 950.421875 1616.441406 915.960938 C 1616.988281 910.519531 1617.699219 904.738281 1618.570312 898.640625 L 1618.539062 898.640625 C 1617.738281 900.699219 1615.960938 901.730469 1613.21875 901.730469 C 1611.398438 901.730469 1609.160156 901.269531 1606.480469 900.371094 C 1601.019531 898.761719 1587.160156 892.140625 1564.890625 880.53125 Z M 1564.871094 880.53125 "/>
<path fill-rule="nonzero" fill="rgb(85.15625%, 61.521912%, 18.431091%)" fill-opacity="1" d="M 1387.421875 1440.191406 L 1394.621094 1446.75 C 1428.121094 1477.308594 1448.871094 1498.699219 1456.859375 1510.910156 C 1462.878906 1519.199219 1467.621094 1527.191406 1471.089844 1534.910156 C 1475.359375 1544.109375 1479.730469 1556.640625 1484.199219 1572.519531 C 1484.53125 1573.980469 1485.699219 1576.628906 1487.710938 1580.449219 C 1488.078125 1581.359375 1489.390625 1582.929688 1491.660156 1585.191406 C 1500.929688 1590.75 1506.519531 1594.671875 1508.429688 1596.960938 C 1512.378906 1600.679688 1516.101562 1604.949219 1519.589844 1609.789062 C 1525.671875 1617.160156 1530.441406 1628.808594 1533.890625 1644.75 C 1538.550781 1628.46875 1538.75 1615.421875 1534.519531 1605.609375 C 1534.320312 1604.488281 1532.46875 1600.710938 1528.988281 1594.289062 L 1509.378906 1563.300781 C 1507.351562 1559.96875 1505.359375 1556.519531 1503.398438 1552.941406 L 1483.96875 1513.199219 C 1480.230469 1505.691406 1476.160156 1498.839844 1471.75 1492.648438 C 1465.011719 1483.640625 1457.28125 1476.609375 1448.558594 1471.558594 C 1441.410156 1467.121094 1430.710938 1462.28125 1416.480469 1457.019531 L 1387.421875 1440.191406 "/>
<path fill-rule="nonzero" fill="rgb(85.15625%, 61.521912%, 18.431091%)" fill-opacity="1" d="M 1321.71875 1497.019531 L 1321.75 1498.089844 L 1418.460938 1534.210938 C 1431.480469 1544.089844 1441.390625 1559.738281 1448.191406 1581.160156 C 1469 1647.039062 1481.460938 1694.570312 1485.550781 1723.769531 C 1490.589844 1722.960938 1494.78125 1722.558594 1498.121094 1722.558594 C 1501.019531 1722.558594 1503.28125 1722.871094 1504.898438 1723.46875 C 1509.660156 1724.550781 1514.429688 1729.121094 1519.210938 1737.191406 C 1522.019531 1731.339844 1523.769531 1726.691406 1524.460938 1723.261719 C 1525.078125 1720.308594 1524.980469 1717.539062 1524.171875 1714.96875 C 1523.871094 1713.660156 1522.890625 1711.601562 1521.230469 1708.789062 C 1511.730469 1695.03125 1505.929688 1686.300781 1503.839844 1682.578125 C 1499.46875 1675.109375 1496.558594 1669.609375 1495.101562 1666.070312 C 1490.808594 1656.960938 1486.011719 1641.941406 1480.710938 1621.019531 L 1476.578125 1647.878906 C 1478.570312 1614.078125 1478.429688 1588.441406 1476.140625 1570.941406 C 1474.878906 1560.898438 1472.589844 1552.011719 1469.289062 1544.261719 C 1468.789062 1541.980469 1465.679688 1536.859375 1459.941406 1528.910156 C 1449.941406 1517.199219 1436.011719 1509.128906 1418.148438 1504.710938 C 1398.328125 1499.640625 1369.628906 1497.109375 1332.070312 1497.109375 C 1331.53125 1497.109375 1330.980469 1497.109375 1330.441406 1497.109375 Z M 1321.71875 1497.019531 "/>
<path fill-rule="nonzero" fill="rgb(85.15625%, 61.521912%, 18.431091%)" fill-opacity="1" d="M 1529.488281 1407.398438 C 1544.808594 1437.25 1554.011719 1457.621094 1557.109375 1468.511719 C 1561.019531 1480.121094 1562.320312 1493.488281 1561.011719 1508.628906 C 1555.859375 1501.929688 1551.738281 1495.148438 1548.640625 1488.289062 C 1547.28125 1485.199219 1545.980469 1481.761719 1544.738281 1477.980469 L 1533.960938 1441.820312 C 1532.460938 1437.058594 1530.851562 1432.539062 1529.140625 1428.28125 C 1525.378906 1419.199219 1521.859375 1413.640625 1518.589844 1411.609375 C 1516.421875 1410.101562 1513.828125 1409.339844 1510.828125 1409.339844 C 1507.769531 1409.339844 1504.269531 1410.128906 1500.351562 1411.710938 C 1507.898438 1432.570312 1513.789062 1446.878906 1518.03125 1454.648438 C 1520.128906 1458.621094 1522.289062 1462.289062 1524.480469 1465.660156 L 1542.261719 1491.898438 C 1545.828125 1497.640625 1550.269531 1505.289062 1555.589844 1514.828125 C 1546.941406 1509.238281 1540.238281 1503.949219 1535.460938 1498.960938 C 1534.550781 1498.691406 1529.578125 1491.859375 1520.578125 1478.460938 C 1518.761719 1476.058594 1516.75 1473.859375 1514.558594 1471.871094 C 1511.398438 1468.761719 1505.25 1464.589844 1496.109375 1459.359375 L 1496.089844 1459.359375 C 1502.839844 1483.039062 1508.519531 1498.53125 1513.121094 1505.820312 C 1516 1510.980469 1519.289062 1515.460938 1522.96875 1519.25 C 1535.171875 1530.621094 1541.480469 1536.789062 1541.890625 1537.769531 C 1545.578125 1542.648438 1547.578125 1545.78125 1547.910156 1547.148438 C 1549.730469 1551.320312 1551.070312 1556.480469 1551.910156 1562.660156 C 1561.050781 1525 1565.191406 1506.058594 1564.339844 1505.820312 C 1568.5 1489.25 1567.449219 1467.730469 1561.199219 1441.238281 C 1558.609375 1435.929688 1556.429688 1432.121094 1554.640625 1429.789062 C 1549.078125 1420.320312 1540.710938 1412.859375 1529.511719 1407.398438 Z M 1529.488281 1407.398438 "/>
<path fill-rule="nonzero" fill="rgb(85.15625%, 61.521912%, 18.431091%)" fill-opacity="1" d="M 1230.820312 1517.121094 C 1182.929688 1538.121094 1148.410156 1555.78125 1127.269531 1570.101562 L 1141.640625 1581.769531 L 1171.21875 1623.269531 C 1173.269531 1624.589844 1180.519531 1640.019531 1192.980469 1669.570312 C 1200.269531 1651 1204.300781 1633.390625 1205.050781 1616.730469 C 1204.691406 1607.261719 1202.910156 1602.171875 1199.71875 1601.480469 C 1198.460938 1600.871094 1196.980469 1600.570312 1195.28125 1600.570312 C 1194.109375 1600.570312 1192.828125 1600.710938 1191.441406 1601 L 1172.5 1606.710938 C 1169.46875 1606.640625 1168.699219 1604.308594 1170.179688 1599.730469 C 1172.460938 1589.851562 1192.679688 1562.308594 1230.839844 1517.121094 Z M 1230.820312 1517.121094 "/>
<path fill-rule="nonzero" fill="rgb(85.15625%, 61.521912%, 18.431091%)" fill-opacity="1" d="M 1151.839844 1530.171875 C 1140.078125 1543.679688 1130.839844 1552.519531 1124.109375 1556.699219 C 1124.828125 1558.28125 1125.558594 1559.871094 1126.308594 1561.488281 C 1125.460938 1563.070312 1124.910156 1564.398438 1124.648438 1565.480469 L 1151.851562 1530.171875 Z M 1151.839844 1530.171875 "/>
<path fill-rule="nonzero" fill="rgb(85.15625%, 61.521912%, 18.431091%)" fill-opacity="1" d="M 1208.300781 1429.53125 C 1174.488281 1439.480469 1152.558594 1446.460938 1142.511719 1450.449219 L 1128.679688 1456.179688 L 1109.609375 1465.980469 C 1106.859375 1467.191406 1105.25 1467.789062 1104.78125 1467.789062 C 1104.738281 1467.789062 1104.710938 1467.789062 1104.691406 1467.789062 C 1104.25 1467.960938 1103.800781 1468.050781 1103.339844 1468.050781 C 1102.679688 1468.050781 1102.011719 1467.859375 1101.328125 1467.488281 C 1100.800781 1473.210938 1100.699219 1478.410156 1101.039062 1483.121094 C 1100.851562 1490.820312 1103.03125 1501.578125 1107.589844 1515.390625 C 1124.738281 1494.160156 1138.75 1478.96875 1149.609375 1469.828125 C 1161.210938 1459.320312 1180.789062 1445.878906 1208.320312 1429.53125 Z M 1208.300781 1429.53125 "/>
<path fill-rule="nonzero" fill="rgb(32.542419%, 36.473083%, 69.726562%)" fill-opacity="1" d="M 1200.941406 1241.570312 C 1173.691406 1241.570312 1161 1249.960938 1162.839844 1266.75 L 1162.75 1268.789062 C 1163.460938 1277.558594 1160.589844 1289.851562 1154.109375 1305.671875 C 1150.199219 1303.261719 1146.480469 1302.058594 1142.949219 1302.058594 C 1140.921875 1302.058594 1138.941406 1302.449219 1137.039062 1303.25 L 1137.050781 1303.261719 C 1133.828125 1306.589844 1132.121094 1310.660156 1131.929688 1315.460938 C 1131.238281 1318.429688 1131.5 1325.511719 1132.691406 1336.691406 C 1137.941406 1367.378906 1142.480469 1398.28125 1146.308594 1429.390625 C 1139.128906 1432.050781 1136.148438 1434.679688 1137.378906 1437.269531 C 1138.121094 1439.480469 1139.921875 1441.480469 1142.789062 1443.269531 L 1156.109375 1448.871094 L 1160.921875 1466.800781 C 1171.648438 1480.890625 1177.121094 1488.949219 1177.308594 1490.96875 C 1179.550781 1496.480469 1180.410156 1501.609375 1179.890625 1506.351562 C 1180.128906 1508.410156 1178.269531 1512.429688 1174.289062 1518.410156 L 1174.25 1521.339844 C 1174.78125 1522.710938 1176.058594 1524.261719 1178.078125 1525.980469 C 1187.089844 1532.871094 1192.230469 1537.121094 1193.5 1538.730469 C 1195.089844 1540.191406 1196.519531 1542.578125 1197.789062 1545.898438 C 1198.351562 1547.789062 1198.628906 1549.691406 1198.609375 1551.601562 C 1197.460938 1562.929688 1197.269531 1568.960938 1198.039062 1569.71875 C 1197.820312 1571.421875 1200.929688 1574.929688 1207.390625 1580.25 L 1209.160156 1583.96875 C 1207.628906 1596.839844 1213.058594 1624.171875 1225.460938 1665.949219 C 1226.429688 1669.429688 1228.378906 1673.050781 1231.308594 1676.808594 L 1231.308594 1676.820312 C 1231.289062 1674.210938 1231.390625 1671.878906 1231.640625 1669.839844 C 1232.828125 1658.628906 1236.511719 1647.730469 1242.679688 1637.148438 L 1274.589844 1584.589844 C 1298.179688 1536.449219 1313.441406 1508.078125 1320.359375 1499.480469 L 1320.378906 1499.480469 C 1320.578125 1496.308594 1321.421875 1493.128906 1322.921875 1489.980469 C 1302.660156 1488.621094 1286.769531 1487.261719 1275.25 1485.898438 C 1266.710938 1465.640625 1258.589844 1445.058594 1250.921875 1424.160156 C 1248.410156 1417.878906 1246.019531 1414.738281 1243.78125 1414.738281 C 1243.660156 1414.738281 1243.550781 1414.75 1243.429688 1414.769531 L 1236.839844 1395.160156 L 1222.878906 1397.589844 C 1212.269531 1371.96875 1206.789062 1353.46875 1206.449219 1342.089844 C 1204.929688 1330.070312 1208.289062 1313.339844 1216.539062 1291.878906 C 1217.058594 1291.789062 1217.730469 1291.730469 1218.558594 1291.730469 C 1233.28125 1291.730469 1296.878906 1306.609375 1409.359375 1336.359375 C 1423.679688 1340.898438 1433.558594 1344.371094 1439 1346.761719 L 1509.679688 1379.050781 L 1547.511719 1393.601562 L 1547.511719 1393.609375 C 1550.179688 1381.820312 1553.660156 1368.53125 1557.960938 1353.738281 C 1558.898438 1349.730469 1559.011719 1346.351562 1558.300781 1343.601562 C 1557.789062 1340.921875 1555.558594 1338.140625 1551.609375 1335.261719 C 1547.261719 1334.351562 1540.910156 1332.191406 1532.570312 1328.769531 L 1450.460938 1292.640625 C 1434.769531 1286.660156 1422.890625 1282.609375 1414.820312 1280.511719 L 1382.058594 1272.789062 C 1325.941406 1263.828125 1280.101562 1255.03125 1244.550781 1246.398438 L 1238.660156 1245.269531 C 1223.949219 1242.808594 1211.378906 1241.570312 1200.941406 1241.570312 Z M 1200.941406 1241.570312 "/>
<path fill-rule="nonzero" fill="rgb(32.542419%, 36.473083%, 69.726562%)" fill-opacity="1" d="M 1123.550781 1312.511719 C 1120.441406 1315.648438 1118.140625 1319.128906 1116.660156 1322.941406 C 1115.730469 1325.890625 1115.558594 1328.769531 1116.171875 1331.589844 L 1123.839844 1356.25 C 1124.121094 1358.121094 1124.261719 1360.160156 1124.269531 1362.339844 C 1125.121094 1363.359375 1125.621094 1364.050781 1125.78125 1364.410156 C 1128.46875 1368.570312 1130.089844 1372.949219 1130.640625 1377.539062 L 1131.230469 1384.828125 C 1131.308594 1395.988281 1131.640625 1412.078125 1132.230469 1433.101562 C 1126.578125 1436.539062 1123.179688 1439.121094 1122.011719 1440.851562 C 1120.21875 1443.488281 1119.609375 1445.601562 1120.191406 1447.179688 C 1120.550781 1449.050781 1121.761719 1450.640625 1123.800781 1451.949219 L 1138.171875 1456.988281 C 1140.089844 1457.960938 1141.609375 1459.398438 1142.738281 1461.300781 C 1143.101562 1461.648438 1143.761719 1463.339844 1144.699219 1466.371094 C 1146.441406 1474.839844 1148.121094 1480.890625 1149.71875 1484.511719 C 1149.390625 1484.628906 1152.960938 1491.011719 1160.449219 1503.671875 C 1162.171875 1507.46875 1163.019531 1509.71875 1162.980469 1510.421875 C 1163.390625 1511.191406 1163.390625 1513.308594 1162.980469 1516.769531 L 1159.359375 1528.140625 C 1158.949219 1531 1158.960938 1532.679688 1159.390625 1533.171875 C 1159.191406 1533.738281 1160.371094 1535.28125 1162.898438 1537.789062 L 1180.960938 1549.859375 C 1183.839844 1552.71875 1185.25 1554.511719 1185.191406 1555.21875 C 1185.699219 1555.800781 1186.058594 1557.828125 1186.261719 1561.300781 C 1185.039062 1570.121094 1184.761719 1576.070312 1185.441406 1579.160156 C 1185.398438 1579.921875 1186.269531 1582.121094 1188.050781 1585.75 L 1199.441406 1602.539062 C 1200.011719 1603.210938 1200.878906 1605.261719 1202.058594 1608.679688 C 1202.359375 1609.308594 1202.738281 1611.488281 1203.21875 1615.210938 C 1203.859375 1626.410156 1204.378906 1633.191406 1204.769531 1635.558594 C 1205.109375 1639.101562 1206.339844 1646.070312 1208.460938 1656.441406 C 1214.03125 1681.71875 1218.839844 1698.339844 1222.890625 1706.28125 C 1221.808594 1692.480469 1220.730469 1682.730469 1219.640625 1677.019531 L 1217.890625 1668.480469 L 1212.769531 1648.640625 L 1210.949219 1639.671875 C 1210.210938 1635.511719 1209.480469 1627 1208.75 1614.148438 C 1208.230469 1609.140625 1207.851562 1606.238281 1207.589844 1605.441406 C 1206.898438 1601.839844 1205.800781 1598.730469 1204.308594 1596.128906 C 1196.480469 1585.96875 1192.480469 1580.070312 1192.28125 1578.429688 C 1191.890625 1577.820312 1191.25 1575.53125 1190.378906 1571.550781 C 1190.089844 1571.140625 1189.398438 1564.921875 1188.308594 1552.890625 C 1188.28125 1552.078125 1187.898438 1550.570312 1187.160156 1548.359375 C 1186.5 1546.839844 1185.628906 1545.628906 1184.550781 1544.75 C 1178.761719 1541.148438 1174.351562 1537.789062 1171.308594 1534.691406 C 1168.429688 1531.878906 1166.410156 1529.050781 1165.261719 1526.171875 C 1164.628906 1524.320312 1164.589844 1522.589844 1165.121094 1520.949219 C 1168.179688 1514.179688 1169.578125 1510.570312 1169.328125 1510.121094 C 1169.878906 1508.589844 1169.660156 1505.511719 1168.679688 1500.871094 C 1167.878906 1497.21875 1165.960938 1493.039062 1162.929688 1488.308594 C 1161.710938 1486.339844 1159 1483.949219 1154.808594 1481.160156 L 1152.941406 1478.558594 C 1152.710938 1478.371094 1152.308594 1476.949219 1151.738281 1474.289062 L 1149.851562 1460.539062 C 1149.359375 1457.941406 1148.589844 1455.828125 1147.519531 1454.191406 C 1146.410156 1452.621094 1145.070312 1451.46875 1143.488281 1450.730469 C 1134.761719 1448.269531 1129.851562 1446.589844 1128.761719 1445.699219 C 1126.75 1444.601562 1125.601562 1443.460938 1125.308594 1442.28125 C 1125.210938 1440.179688 1128.78125 1437.949219 1136 1435.578125 C 1137.421875 1432.941406 1138.191406 1427.789062 1138.328125 1420.140625 C 1138.359375 1406.339844 1137.25 1391.589844 1135.039062 1375.871094 C 1133.789062 1368.128906 1132.980469 1363.558594 1132.601562 1362.148438 C 1132.53125 1360.980469 1129.980469 1350.640625 1124.960938 1331.140625 C 1123.851562 1326.019531 1123.308594 1323.109375 1123.320312 1322.429688 C 1122.921875 1318.828125 1123 1315.519531 1123.558594 1312.511719 Z M 1123.550781 1312.511719 "/>
<path fill-rule="nonzero" fill="rgb(85.15625%, 61.521912%, 18.431091%)" fill-opacity="1" d="M 1131.710938 921.019531 L 1134.851562 918.019531 C 1148.019531 905 1161.5 894.070312 1175.308594 885.199219 C 1187.25 877.308594 1209.78125 865.609375 1242.890625 850.089844 C 1223.519531 860.328125 1209.820312 869 1201.75 876.101562 C 1193.410156 882.851562 1182.5 894.949219 1169.039062 912.398438 L 1131.710938 921.019531 "/>
<path fill-rule="nonzero" fill="rgb(92.96875%, 93.359375%, 93.359375%)" fill-opacity="1" d="M 1166.238281 2089.746094 L 1157.851562 2117.460938 C 1138.949219 2182.167969 1127.148438 2218.445312 1122.441406 2226.292969 C 1120.28125 2231.71875 1115.480469 2241.007812 1108.058594 2254.160156 L 1072.011719 2313.035156 C 1067.148438 2321.785156 1062.398438 2331.378906 1057.769531 2341.816406 C 1068.21875 2343.523438 1077.179688 2341.097656 1084.648438 2334.535156 C 1087.988281 2331.398438 1091.328125 2327.199219 1094.679688 2321.945312 C 1095.808594 2320.527344 1101.289062 2311.238281 1111.101562 2294.078125 C 1114.480469 2288.765625 1116.429688 2285.957031 1116.929688 2285.648438 C 1119.691406 2281.628906 1123.71875 2279.875 1129.019531 2280.390625 L 1182.179688 2294.808594 C 1188.039062 2315.027344 1192.929688 2335.613281 1196.851562 2356.566406 C 1201.679688 2317.945312 1203.589844 2294.3125 1202.570312 2285.667969 C 1223.070312 2244.730469 1250.441406 2189.03125 1284.660156 2118.574219 C 1272.609375 2129.679688 1263.578125 2136.308594 1257.578125 2138.46875 C 1252.679688 2141.066406 1245.398438 2141.46875 1235.75 2139.675781 C 1220.980469 2136.136719 1205.539062 2129.089844 1189.449219 2118.535156 C 1179.089844 2110.800781 1171.351562 2101.207031 1166.238281 2089.746094 "/>
<path fill-rule="nonzero" fill="rgb(92.96875%, 93.359375%, 93.359375%)" fill-opacity="1" d="M 1012.589844 2290.402344 L 1015.71875 2295.847656 C 1027.179688 2316.382812 1038.839844 2332.886719 1050.691406 2345.351562 C 1033.570312 2374.882812 1020.160156 2397.75 1010.449219 2413.957031 C 1008.261719 2417.746094 1006.441406 2421.292969 1005 2424.585938 C 1000.289062 2433.917969 999.679688 2448.359375 1003.179688 2467.910156 C 999.835938 2474.445312 995.929688 2480.992188 991.464844 2487.550781 C 983.398438 2502.808594 955.332031 2522.777344 907.261719 2547.457031 C 902.976562 2542.753906 897.816406 2539.285156 891.777344 2537.058594 C 886.53125 2534.871094 874.964844 2531.851562 857.078125 2527.992188 L 858.132812 2484.777344 C 874.597656 2463.054688 886.511719 2442.988281 893.875 2424.574219 C 907.390625 2416.242188 920.234375 2405.085938 932.402344 2391.097656 C 947.5 2374.09375 974.230469 2340.527344 1012.589844 2290.402344 "/>
<path fill-rule="nonzero" fill="rgb(23.143005%, 25.488281%, 38.426208%)" fill-opacity="1" d="M 1127.261719 2280.304688 C 1122.820312 2280.304688 1119.378906 2282.085938 1116.929688 2285.648438 C 1116.429688 2285.957031 1114.480469 2288.765625 1111.101562 2294.078125 C 1101.289062 2311.238281 1095.808594 2320.527344 1094.679688 2321.945312 C 1091.328125 2327.199219 1087.988281 2331.398438 1084.648438 2334.535156 C 1078.730469 2339.742188 1071.859375 2342.34375 1064.058594 2342.34375 C 1062.03125 2342.34375 1059.929688 2342.167969 1057.769531 2341.816406 C 1058.171875 2340.910156 1058.570312 2340.007812 1058.980469 2339.113281 L 1058.960938 2339.117188 L 1056.191406 2342.539062 L 1050.320312 2353.011719 C 1034.339844 2381.671875 1020.78125 2404.59375 1009.640625 2421.78125 C 1006.429688 2427.847656 1004.601562 2432.117188 1004.160156 2434.597656 C 1002.070312 2441.335938 1002.269531 2452.027344 1004.78125 2466.675781 C 998.222656 2491.339844 995.015625 2508.253906 995.152344 2517.417969 C 994.585938 2525.285156 995.683594 2533.027344 998.449219 2540.640625 C 1001.039062 2548.121094 1007.070312 2555.515625 1016.539062 2562.828125 C 1026.539062 2570.109375 1040.351562 2577.613281 1057.960938 2585.332031 C 1101.308594 2604.617188 1124.601562 2614.351562 1127.859375 2614.53125 C 1132.21875 2615.585938 1136.011719 2616.113281 1139.210938 2616.113281 C 1145.609375 2616.113281 1149.691406 2614.011719 1151.460938 2609.808594 C 1154.21875 2605.269531 1153.738281 2597.433594 1150.019531 2586.300781 C 1154.171875 2550.984375 1157.808594 2523.945312 1160.941406 2505.183594 C 1161.089844 2502.863281 1161 2500.5625 1160.660156 2498.28125 C 1158.699219 2488.398438 1157.808594 2483.183594 1157.96875 2482.636719 C 1157.679688 2477.207031 1157.859375 2473.015625 1158.519531 2470.0625 C 1158.710938 2464.839844 1164.480469 2446.558594 1175.839844 2415.222656 L 1181.710938 2391.605469 L 1183.800781 2386.8125 C 1189.789062 2379.660156 1193.089844 2374.878906 1193.691406 2372.472656 C 1194.738281 2370.851562 1195.820312 2365.867188 1196.910156 2357.523438 C 1197.039062 2356.261719 1197.160156 2354.902344 1197.28125 2353.4375 L 1197.261719 2353.445312 C 1197.121094 2354.472656 1196.980469 2355.511719 1196.851562 2356.566406 C 1192.929688 2335.613281 1188.039062 2315.027344 1182.179688 2294.808594 L 1129.019531 2280.390625 C 1128.421875 2280.332031 1127.828125 2280.304688 1127.261719 2280.304688 Z M 1127.261719 2280.304688 "/>
<path fill-rule="nonzero" fill="rgb(23.143005%, 25.488281%, 38.426208%)" fill-opacity="1" d="M 894.613281 2424.105469 L 844.691406 2439.5625 C 826.496094 2441.5 807.992188 2442.46875 789.179688 2442.46875 C 779.648438 2442.46875 770.035156 2442.222656 760.34375 2441.722656 C 760.3125 2441.722656 760.28125 2441.722656 760.25 2441.722656 C 757.140625 2441.722656 753.046875 2442.578125 747.96875 2444.289062 C 743.085938 2446.230469 737.960938 2449.6875 732.589844 2454.660156 C 720.199219 2454.816406 711.285156 2457.402344 705.851562 2462.417969 C 699.859375 2468.242188 697.328125 2479.011719 698.257812 2494.734375 C 700.695312 2520.765625 708.234375 2546.726562 720.867188 2572.609375 C 726.996094 2586.054688 737.808594 2594.550781 753.296875 2598.089844 C 747.371094 2604.875 746.289062 2614.988281 750.050781 2628.425781 C 755.558594 2649.144531 761.945312 2661.105469 769.214844 2664.300781 C 760.1875 2670.011719 755.71875 2678.644531 755.808594 2690.195312 C 756.136719 2710.597656 760.015625 2729.574219 767.445312 2747.121094 C 771.480469 2755.332031 777.046875 2759.4375 784.144531 2759.4375 C 785.84375 2759.4375 787.628906 2759.199219 789.503906 2758.730469 L 789.519531 2758.734375 C 787.804688 2778.148438 799.644531 2799.199219 825.039062 2821.886719 C 843.613281 2838.753906 858.6875 2847.1875 870.253906 2847.1875 C 873.105469 2847.1875 875.742188 2846.675781 878.167969 2845.648438 C 894.285156 2838.390625 902.617188 2827.246094 903.160156 2812.222656 C 903.121094 2804.867188 902.789062 2800.164062 902.15625 2798.113281 L 889.8125 2748.480469 C 887.644531 2737.140625 886.601562 2730.351562 886.675781 2728.105469 C 885.015625 2711.921875 887.769531 2692.925781 894.933594 2671.109375 C 896.832031 2665.058594 900.585938 2656.101562 906.1875 2644.238281 L 934.78125 2590.859375 C 938.585938 2582.738281 942.644531 2572.863281 946.957031 2561.234375 C 965.65625 2543.285156 978.140625 2527.582031 984.410156 2514.128906 C 990.496094 2502.015625 995.679688 2488.625 999.960938 2473.957031 L 999.941406 2473.964844 C 997.378906 2478.484375 994.550781 2483.015625 991.464844 2487.550781 C 983.398438 2502.808594 955.332031 2522.777344 907.261719 2547.457031 C 902.976562 2542.753906 897.816406 2539.285156 891.777344 2537.058594 C 886.53125 2534.871094 874.964844 2531.851562 857.078125 2527.992188 L 858.132812 2484.777344 C 874.597656 2463.054688 886.511719 2442.988281 893.875 2424.574219 C 894.125 2424.417969 894.375 2424.261719 894.625 2424.105469 Z M 894.613281 2424.105469 "/>
<path fill-rule="nonzero" fill="rgb(91.40625%, 92.96875%, 90.234375%)" fill-opacity="1" d="M 1330.25 1501.269531 L 1327.488281 1506.210938 C 1296.089844 1558.96875 1278.460938 1609.171875 1274.621094 1656.820312 C 1272.941406 1671.980469 1273.570312 1686.429688 1276.480469 1700.160156 C 1279.558594 1715.109375 1284.210938 1731.519531 1290.449219 1749.398438 C 1291.878906 1753.480469 1293.378906 1757.640625 1294.96875 1761.878906 L 1294.96875 1761.890625 C 1294.96875 1761.898438 1294.96875 1761.910156 1294.96875 1761.929688 C 1296.441406 1765.808594 1297.980469 1769.75 1299.570312 1773.761719 C 1300.621094 1777.210938 1300.621094 1780.808594 1299.570312 1784.578125 C 1298.511719 1788.351562 1295.839844 1793.070312 1291.539062 1798.730469 C 1262.390625 1832.320312 1244.980469 1853.75 1239.289062 1863 C 1231.808594 1873.820312 1225.449219 1885.121094 1220.21875 1896.890625 C 1208.558594 1921.398438 1197.21875 1965.730469 1186.199219 2029.882812 C 1207.058594 2054.917969 1222.871094 2070.667969 1233.628906 2077.136719 C 1246.039062 2084.71875 1258.300781 2088.511719 1270.421875 2088.511719 C 1271.828125 2088.511719 1273.238281 2088.460938 1274.648438 2088.359375 C 1274.699219 2088.359375 1274.738281 2088.359375 1274.789062 2088.359375 C 1287.460938 2088.359375 1301.320312 2083.394531 1316.359375 2073.464844 C 1333.210938 2049.464844 1343.761719 2033.242188 1348.011719 2024.796875 C 1355.738281 2010.113281 1360.550781 1999.390625 1362.429688 1992.640625 C 1363.011719 1992.488281 1367.890625 1974.820312 1377.070312 1939.648438 C 1379.558594 1931.148438 1382.71875 1923.160156 1386.550781 1915.671875 C 1390.46875 1908.230469 1395 1901.230469 1400.128906 1894.660156 C 1404.859375 1888.449219 1411.570312 1880.800781 1420.289062 1871.691406 C 1416.839844 1869.769531 1413.199219 1867.808594 1409.398438 1865.808594 C 1451.75 1816.398438 1477.378906 1778.058594 1486.300781 1750.78125 C 1490.421875 1731.160156 1477.710938 1674.609375 1448.191406 1581.160156 C 1441.390625 1559.738281 1431.480469 1544.089844 1418.460938 1534.210938 Z M 1330.25 1501.269531 "/>
<path fill-rule="nonzero" fill="rgb(94.53125%, 96.484375%, 91.796875%)" fill-opacity="1" d="M 733.394531 2453.925781 C 733.128906 2454.167969 732.859375 2454.410156 732.589844 2454.660156 C 720.199219 2454.816406 711.285156 2457.402344 705.851562 2462.417969 C 699.859375 2468.242188 697.328125 2479.011719 698.257812 2494.734375 C 700.695312 2520.765625 708.234375 2546.726562 720.867188 2572.609375 C 726.996094 2586.054688 737.808594 2594.550781 753.296875 2598.089844 C 747.371094 2604.875 746.289062 2614.988281 750.050781 2628.425781 C 755.558594 2649.144531 761.945312 2661.105469 769.214844 2664.300781 C 760.1875 2670.011719 755.71875 2678.644531 755.808594 2690.195312 C 756.136719 2710.597656 760.015625 2729.574219 767.445312 2747.121094 C 771.480469 2755.332031 777.046875 2759.4375 784.144531 2759.4375 C 785.839844 2759.4375 787.621094 2759.203125 789.492188 2758.734375 L 789.503906 2758.738281 C 787.800781 2778.152344 799.644531 2799.199219 825.039062 2821.886719 C 843.613281 2838.753906 858.6875 2847.1875 870.253906 2847.1875 C 873.105469 2847.1875 875.742188 2846.675781 878.167969 2845.648438 C 893.871094 2838.574219 902.183594 2827.816406 903.105469 2813.371094 L 903.089844 2813.378906 C 895.613281 2829.621094 887.765625 2837.742188 879.554688 2837.742188 C 877.09375 2837.742188 874.601562 2837.011719 872.078125 2835.558594 C 861.484375 2829.738281 851.433594 2820.292969 841.929688 2807.214844 C 838.136719 2802.445312 833.773438 2795.527344 828.84375 2786.46875 L 814.957031 2756.648438 C 812.71875 2752.945312 808.472656 2749.03125 802.226562 2744.90625 C 799.386719 2732.769531 797.558594 2723.527344 796.734375 2717.183594 C 793.710938 2683.304688 791.78125 2665.667969 790.949219 2664.269531 C 782.285156 2632.128906 772.679688 2584.769531 762.136719 2522.1875 L 744.128906 2549.835938 C 742.027344 2545.640625 740.460938 2541.375 739.4375 2537.046875 C 736.640625 2527.671875 734.636719 2500.117188 733.421875 2454.386719 L 733.410156 2453.925781 Z M 733.394531 2453.925781 "/>
<path fill-rule="nonzero" fill="rgb(94.53125%, 96.484375%, 91.796875%)" fill-opacity="1" d="M 1010.351562 2420.683594 C 1010.109375 2421.054688 1009.878906 2421.417969 1009.640625 2421.78125 C 1006.429688 2427.847656 1004.601562 2432.117188 1004.160156 2434.597656 C 1002.070312 2441.335938 1002.269531 2452.027344 1004.78125 2466.675781 C 998.222656 2491.339844 995.015625 2508.253906 995.152344 2517.417969 C 994.585938 2525.285156 995.683594 2533.027344 998.449219 2540.640625 C 1001.039062 2548.121094 1007.070312 2555.515625 1016.539062 2562.828125 C 1026.539062 2570.109375 1040.351562 2577.613281 1057.960938 2585.332031 C 1101.308594 2604.617188 1124.601562 2614.351562 1127.859375 2614.53125 C 1132.21875 2615.585938 1136.011719 2616.113281 1139.210938 2616.113281 C 1145.609375 2616.113281 1149.691406 2614.011719 1151.460938 2609.808594 C 1153.808594 2605.957031 1153.808594 2599.738281 1151.488281 2591.148438 C 1139.011719 2582.824219 1129.160156 2577.1875 1121.941406 2574.230469 C 1114.230469 2570.871094 1108.121094 2568.460938 1103.589844 2567.007812 L 1063.769531 2554.1875 C 1056.808594 2551.726562 1050.429688 2548.964844 1044.648438 2545.890625 C 1039.871094 2543.667969 1034.269531 2539.339844 1027.851562 2532.90625 L 1023.328125 2527.511719 L 1012.75 2512.308594 C 1011.929688 2511.554688 1011.128906 2511.179688 1010.359375 2511.179688 C 1009.261719 2511.179688 1008.21875 2511.945312 1007.230469 2513.480469 C 1006.21875 2509.980469 1006.019531 2505.601562 1006.628906 2500.335938 L 1013.019531 2468.058594 C 1013.859375 2463.609375 1014.410156 2458.023438 1014.660156 2451.292969 C 1014.96875 2442.835938 1013.539062 2432.632812 1010.371094 2420.683594 Z M 1010.351562 2420.683594 "/>
<path fill-rule="nonzero" fill="rgb(91.40625%, 92.96875%, 90.234375%)" fill-opacity="1" d="M 1161.429688 2105.648438 L 1157.820312 2108.253906 C 1133.019531 2125.140625 1112.441406 2143.496094 1096.070312 2163.316406 C 1087.550781 2173.738281 1080.820312 2184.046875 1075.859375 2194.242188 C 1071.898438 2201.863281 1067.609375 2214.140625 1062.980469 2231.078125 C 1051.691406 2238.292969 1045.609375 2244.234375 1044.75 2248.898438 C 1042.519531 2254.089844 1044.648438 2262.175781 1051.160156 2273.15625 C 1059.230469 2285.886719 1068.011719 2295.871094 1077.488281 2303.101562 L 1078.820312 2301.90625 L 1108.058594 2254.160156 C 1115.480469 2241.007812 1120.28125 2231.71875 1122.441406 2226.292969 C 1127.148438 2218.445312 1138.949219 2182.167969 1157.851562 2117.460938 Z M 1161.429688 2105.648438 "/>
<path fill-rule="nonzero" fill="rgb(91.40625%, 92.96875%, 90.234375%)" fill-opacity="1" d="M 1420.289062 1871.691406 C 1411.570312 1880.800781 1404.859375 1888.449219 1400.128906 1894.660156 C 1395 1901.230469 1390.46875 1908.230469 1386.550781 1915.671875 C 1382.71875 1923.160156 1379.558594 1931.148438 1377.070312 1939.648438 C 1367.890625 1974.820312 1363.011719 1992.488281 1362.429688 1992.640625 C 1360.550781 1999.390625 1355.738281 2010.113281 1348.011719 2024.796875 C 1343.761719 2033.242188 1333.210938 2049.464844 1316.359375 2073.464844 C 1313.859375 2075.121094 1311.378906 2076.636719 1308.941406 2078.015625 C 1308.28125 2079.390625 1307.609375 2080.738281 1306.929688 2082.054688 C 1302.230469 2091.152344 1297.171875 2100.046875 1291.730469 2108.742188 C 1288.53125 2113.671875 1285.460938 2118.410156 1282.519531 2122.945312 C 1249.300781 2191.339844 1222.648438 2245.582031 1202.570312 2285.667969 C 1203.238281 2291.371094 1202.640625 2303.59375 1200.769531 2322.335938 C 1223.449219 2298.167969 1240.128906 2279.851562 1250.808594 2267.382812 C 1254.160156 2263.902344 1267.96875 2246.273438 1292.21875 2214.507812 C 1297.148438 2208.34375 1302.511719 2202.046875 1308.300781 2195.621094 C 1312.480469 2189.019531 1332.859375 2170.800781 1369.460938 2140.972656 C 1378.210938 2132.109375 1383.300781 2125.628906 1384.75 2121.53125 C 1387.339844 2116.886719 1391.730469 2104.734375 1397.910156 2085.070312 C 1401.539062 2076.101562 1404.019531 2070.542969 1405.351562 2068.382812 C 1407.859375 2063.066406 1419.320312 2043.707031 1439.730469 2010.296875 C 1445.71875 1999.320312 1449.078125 1992.820312 1449.808594 1990.769531 C 1457.261719 1973.808594 1462.390625 1957.929688 1465.191406 1943.121094 C 1467.148438 1934.03125 1469.019531 1922.800781 1470.800781 1909.421875 C 1464.089844 1899.210938 1447.261719 1886.628906 1420.308594 1871.691406 Z M 1420.289062 1871.691406 "/>
<path fill-rule="nonzero" fill="rgb(32.542419%, 36.473083%, 69.726562%)" fill-opacity="1" d="M 2141.789062 1333.859375 L 2141.96875 1325.328125 C 2141.988281 1292.410156 2146.339844 1271.070312 2155.019531 1261.300781 C 2117.878906 1245.839844 2088.769531 1231.589844 2067.699219 1218.550781 C 2061.890625 1215.078125 2053.070312 1208.808594 2041.261719 1199.75 C 1992.898438 1158.660156 1964.589844 1135.679688 1956.320312 1130.808594 C 1948.289062 1124.519531 1929.308594 1114.160156 1899.378906 1099.75 C 1891.679688 1095.039062 1887 1091.960938 1885.328125 1090.519531 C 1878.808594 1088.46875 1838.101562 1049.179688 1763.199219 972.660156 C 1733.988281 1008.179688 1706.351562 1037.519531 1680.28125 1060.699219 C 1783.21875 1166.671875 1846.859375 1224.839844 1871.199219 1235.230469 C 1888.628906 1247.25 1930.308594 1265.21875 1996.25 1289.140625 C 2067.140625 1315.46875 2115.648438 1330.371094 2141.789062 1333.859375 "/>
<path fill-rule="nonzero" fill="rgb(19.604492%, 18.431091%, 17.651367%)" fill-opacity="1" d="M 2315.128906 228.421875 C 2315.128906 275.859375 2196.410156 298.441406 2084.058594 298.441406 C 1971.710938 298.441406 1852.988281 275.859375 1852.988281 228.421875 C 1852.988281 180.980469 1971.710938 158.398438 2084.058594 158.398438 C 2196.410156 158.398438 2315.128906 180.980469 2315.128906 228.421875 M 2289.851562 228.421875 C 2289.851562 212.46875 2212.980469 183.679688 2084.058594 183.679688 C 1955.140625 183.679688 1878.269531 212.46875 1878.269531 228.421875 C 1878.269531 244.371094 1955.140625 273.160156 2084.058594 273.160156 C 2212.980469 273.160156 2289.851562 244.371094 2289.851562 228.421875 Z M 2289.851562 228.421875 "/>
<path fill-rule="nonzero" fill="rgb(22.75238%, 26.268005%, 52.146912%)" fill-opacity="1" d="M 1706.601562 1035.75 C 1697.660156 1044.730469 1688.878906 1053.058594 1680.28125 1060.699219 C 1783.21875 1166.671875 1846.859375 1224.839844 1871.199219 1235.230469 C 1888.628906 1247.25 1930.308594 1265.21875 1996.25 1289.140625 C 2067.140625 1315.46875 2115.648438 1330.371094 2141.789062 1333.859375 L 2141.96875 1325.328125 C 2141.96875 1320.160156 2142.078125 1315.28125 2142.300781 1310.691406 C 2124.339844 1306.578125 2106.480469 1301.609375 2088.699219 1295.789062 C 1996.140625 1264.71875 1932.890625 1240.03125 1898.960938 1221.699219 C 1877.070312 1209.761719 1865.808594 1199.039062 1865.191406 1189.558594 C 1864.488281 1184.789062 1864.988281 1180.210938 1866.691406 1175.820312 C 1873 1161.738281 1879.191406 1146.28125 1885.269531 1129.441406 L 1885.25 1129.441406 C 1868.28125 1158.359375 1853.921875 1172.820312 1842.160156 1172.820312 C 1839.429688 1172.820312 1836.839844 1172.039062 1834.398438 1170.480469 C 1829.210938 1167.878906 1823.609375 1163.378906 1817.578125 1157 C 1783.679688 1116.789062 1747.261719 1076.949219 1708.308594 1037.480469 L 1706.621094 1035.75 Z M 1706.601562 1035.75 "/>
<path fill-rule="nonzero" fill="rgb(22.75238%, 26.268005%, 52.146912%)" fill-opacity="1" d="M 672.738281 561.238281 C 691.710938 584.929688 703.84375 599.5 709.132812 604.949219 C 718.5 615.75 731.695312 628.621094 748.722656 643.558594 C 760.058594 653.171875 771.140625 661.480469 781.964844 668.46875 C 819.703125 690.800781 840.195312 703.371094 843.441406 706.191406 C 849.800781 710.058594 877.621094 731.410156 926.894531 770.230469 C 936.296875 777.160156 947.691406 784.210938 961.085938 791.390625 C 957.875 769.410156 960.65625 751.019531 969.425781 736.210938 C 970.679688 734.269531 972.023438 732.359375 973.457031 730.460938 L 973.441406 730.46875 C 971.5625 731.058594 969.804688 731.488281 968.167969 731.761719 C 964.328125 733.230469 959.867188 733.96875 954.777344 733.96875 C 945.265625 733.96875 933.570312 731.390625 919.6875 726.230469 C 917.285156 725.5 910.308594 722.171875 898.757812 716.21875 C 872.222656 700.621094 839.679688 682.921875 801.125 663.101562 C 785.300781 654.320312 772.359375 646.320312 762.304688 639.089844 C 740.125 623.691406 710.273438 597.730469 672.753906 561.238281 Z M 672.738281 561.238281 "/>
<path fill-rule="nonzero" fill="rgb(85.15625%, 61.521912%, 18.431091%)" fill-opacity="1" d="M 1231.488281 1664.929688 L 1230.339844 1669.898438 C 1227.738281 1681.5 1226.261719 1689.738281 1225.921875 1694.621094 C 1225.378906 1702.761719 1225.289062 1707.621094 1225.628906 1709.199219 C 1226.230469 1718.871094 1229.230469 1728.191406 1234.640625 1737.160156 C 1241.191406 1748.421875 1251.128906 1759.261719 1264.449219 1769.691406 C 1271.199219 1774.980469 1279.058594 1779.058594 1288.019531 1781.910156 C 1290.539062 1778.21875 1292.199219 1775.230469 1293 1772.960938 C 1294.300781 1770.210938 1294.960938 1766.75 1294.980469 1762.601562 C 1294.578125 1761.019531 1294.140625 1759.511719 1293.648438 1758.070312 C 1292.929688 1755.660156 1291.820312 1752.609375 1290.308594 1748.878906 L 1290.289062 1748.890625 C 1290.328125 1749.050781 1290.378906 1749.210938 1290.441406 1749.371094 C 1277.089844 1735.960938 1258.089844 1718.78125 1233.449219 1697.808594 C 1231.460938 1685.648438 1230.859375 1676.328125 1231.640625 1669.839844 C 1231.78125 1668.480469 1231.960938 1667.140625 1232.179688 1665.789062 Z M 1231.488281 1664.929688 "/>
<path fill-rule="nonzero" fill="rgb(85.15625%, 61.521912%, 18.431091%)" fill-opacity="1" d="M 1201.261719 1787.488281 C 1197.628906 1787.488281 1194.269531 1787.691406 1191.179688 1788.109375 C 1185.609375 1788.761719 1180.609375 1790.078125 1176.179688 1792.070312 C 1176.128906 1792.578125 1176.148438 1792.910156 1176.230469 1793.058594 C 1177.359375 1794.230469 1178.191406 1795.601562 1178.71875 1797.171875 C 1183.089844 1815.429688 1186.558594 1826.871094 1189.109375 1831.480469 C 1194.691406 1843.578125 1202.578125 1851.019531 1212.769531 1853.789062 C 1215.78125 1821.980469 1219.761719 1800.679688 1224.691406 1789.910156 C 1222.511719 1789.429688 1220.320312 1789.03125 1218.109375 1788.699219 C 1211.960938 1787.890625 1206.339844 1787.488281 1201.261719 1787.488281 Z M 1201.261719 1787.488281 "/>
</svg>
